
<svg version="1.1" id="Layer_1" xmlns="http://www.w3.org/2000/svg" xmlns:xlink="http://www.w3.org/1999/xlink" x="0px" y="0px"
	 width="1033.333px" height="178.261px" viewBox="0 0 1033.333 178.261" enable-background="new 0 0 1033.333 178.261"
	 xml:space="preserve">
<g>
	<path fill="#FEFFFD" d="M94.605,112.905l-7.227,13.379c-3.125-0.26-5.387-0.391-6.787-0.391c-1.725,0-4.053,0.13-6.982,0.391
		s-5.208,0.391-6.835,0.391c-6.576,0-12.395-1.017-17.456-3.052c-5.062-2.034-9.237-4.785-12.524-8.252
		c-3.288-3.467-5.729-7.292-7.324-11.475c-1.595-4.183-2.393-8.423-2.393-12.72c0-5.501,0.936-10.571,2.808-15.21
		c1.872-4.639,4.517-8.626,7.935-11.963c3.418-3.336,7.405-5.892,11.963-7.666c4.557-1.774,9.456-2.661,14.697-2.661
		c1.367,0,2.229,0.008,2.588,0.024c0.358,0.017,1.139,0.049,2.344,0.098s2.425,0.106,3.662,0.171
		c4.395,0.293,7.764,0.439,10.107,0.439c5.209,0,8.609-0.146,10.205-0.439l0.586,16.406h-0.586l-3.271-10.889
		c-0.977-0.228-2.701-0.553-5.176-0.977c-2.475-0.423-4.891-0.765-7.25-1.025c-2.361-0.26-4.826-0.391-7.398-0.391
		c-6.706,0-12.443,1.343-17.211,4.028c-4.769,2.686-8.358,6.494-10.767,11.426c-2.409,4.932-3.613,10.604-3.613,17.017
		c0,4.98,0.862,9.563,2.588,13.745c1.725,4.183,4.134,7.748,7.227,10.693c3.092,2.946,6.616,5.184,10.571,6.714
		c3.955,1.53,8.13,2.295,12.524,2.295c4.361,0,8.447-0.74,12.256-2.222c3.809-1.481,7.211-4.175,10.205-8.081L94.605,112.905z
		 M72.486,54.799h-5.712c-5.664,0-10.864,0.936-15.601,2.808c-4.736,1.872-8.74,4.476-12.012,7.813
		c-3.271,3.337-5.754,7.186-7.446,11.548C30.022,81.33,29.176,86,29.176,90.981c0,4.558,0.871,8.911,2.612,13.062
		c1.741,4.15,4.313,7.845,7.715,11.084c3.401,3.239,7.462,5.762,12.183,7.568c4.72,1.807,9.993,2.71,15.82,2.71
		c2.604,0,4.263-0.032,4.98-0.098v-0.635c-6.478,0.13-12.248-0.724-17.309-2.563c-5.062-1.839-9.237-4.411-12.524-7.715
		c-3.288-3.304-5.737-7.039-7.349-11.206c-1.611-4.167-2.417-8.398-2.417-12.695c0-4.231,0.7-8.398,2.1-12.5
		c1.399-4.102,3.556-7.861,6.47-11.279c2.913-3.418,6.681-6.144,11.304-8.179c4.622-2.034,10.059-3.052,16.309-3.052h3.417V54.799z"
		/>
	<path fill="#FEFFFD" d="M98.365,55.092v-0.488h52.002l1.221,15.186h-0.781l-3.516-11.914c-2.768-0.195-5.876-0.293-9.326-0.293
		c-6.283,0-11.345,0.439-15.186,1.318c-0.651,5.273-0.977,11.296-0.977,18.066c0,4.232,0.13,7.666,0.391,10.303
		c5.143,0.293,8.414,0.439,9.814,0.439c3.678,0,7.471-0.211,11.377-0.635l2.197-8.301h0.83v20.801h-0.83l-2.295-8.789
		c-2.832-0.325-5.957-0.488-9.375-0.488c-4.297,0-8.203,0.195-11.719,0.586c-0.424,3.776-0.554,7.471-0.391,11.084
		c0.064,4.623,0.146,8.439,0.244,11.45c0.098,3.011,0.276,5.607,0.537,7.788c3.971,1.205,9.18,1.807,15.625,1.807
		c3.711,0,6.836-0.146,9.375-0.439l3.906-11.768h0.684l-1.074,15.283H98.511V125.6l11.67-1.709c0.26-1.334,0.496-3.369,0.708-6.104
		c0.211-2.734,0.398-5.802,0.562-9.204c0.162-3.401,0.276-6.25,0.342-8.545c0.064-2.295,0.098-4.305,0.098-6.03V81.704
		c0-1.563-0.049-3.784-0.146-6.665s-0.244-5.867-0.439-8.96c-0.195-3.092-0.473-6.185-0.83-9.277L98.365,55.092z M113.208,56.508
		v67.676h3.369V56.508H113.208z"/>
	<path fill="#FEFFFD" d="M156.519,55.092v-0.488h36.914v0.488l-12.109,1.709c-0.424,3.158-0.781,7.414-1.074,12.769
		c-0.293,5.355-0.439,10.034-0.439,14.038v20.996c0,5.046,0.26,10.303,0.781,15.771c5.566,1.758,11.312,2.637,17.236,2.637
		c2.864,0,5.501-0.163,7.91-0.488c2.408-0.325,4.102-0.635,5.078-0.928l5.078-13.33h0.732l-2.295,17.822h-57.91V125.6l11.67-1.709
		c0.391-1.563,0.724-4.346,1.001-8.35c0.276-4.004,0.496-8.138,0.659-12.402c0.162-4.264,0.244-7.275,0.244-9.033V81.801
		c0-2.702-0.065-5.802-0.195-9.302c-0.131-3.499-0.285-6.567-0.464-9.204c-0.18-2.637-0.415-4.801-0.708-6.494L156.519,55.092z
		 M171.314,56.411v67.773h3.418V56.411H171.314z"/>
	<path fill="#FEFFFD" d="M218.189,55.092v-0.488h52.002l1.221,15.186h-0.781l-3.516-11.914c-2.768-0.195-5.876-0.293-9.326-0.293
		c-6.283,0-11.345,0.439-15.186,1.318c-0.651,5.273-0.977,11.296-0.977,18.066c0,4.232,0.13,7.666,0.391,10.303
		c5.143,0.293,8.414,0.439,9.814,0.439c3.678,0,7.471-0.211,11.377-0.635l2.197-8.301h0.83v20.801h-0.83l-2.295-8.789
		c-2.832-0.325-5.957-0.488-9.375-0.488c-4.297,0-8.203,0.195-11.719,0.586c-0.424,3.776-0.554,7.471-0.391,11.084
		c0.064,4.623,0.146,8.439,0.244,11.45c0.098,3.011,0.276,5.607,0.537,7.788c3.971,1.205,9.18,1.807,15.625,1.807
		c3.711,0,6.836-0.146,9.375-0.439l3.906-11.768h0.684l-1.074,15.283h-52.588V125.6l11.67-1.709c0.26-1.334,0.496-3.369,0.708-6.104
		c0.211-2.734,0.398-5.802,0.562-9.204c0.162-3.401,0.276-6.25,0.342-8.545c0.064-2.295,0.098-4.305,0.098-6.03V81.704
		c0-1.563-0.049-3.784-0.146-6.665s-0.244-5.867-0.439-8.96c-0.195-3.092-0.473-6.185-0.83-9.277L218.189,55.092z M233.033,56.508
		v67.676h3.369V56.508H233.033z"/>
	<path fill="#FEFFFD" d="M278.541,108.999l3.711,12.012c1.855,0.847,4.028,1.53,6.519,2.051c2.49,0.521,4.646,0.765,6.47,0.732
		c2.441,0,4.679-0.423,6.714-1.27c2.034-0.846,3.694-1.92,4.98-3.223c1.285-1.302,2.271-2.775,2.954-4.419
		c0.684-1.644,1.025-3.247,1.025-4.81c0-3.223-1.091-5.94-3.271-8.154c-2.182-2.213-5.835-5.045-10.962-8.496
		c-5.127-3.45-8.847-6.331-11.157-8.643c-1.986-2.051-3.467-4.109-4.443-6.177c-0.977-2.067-1.465-4.37-1.465-6.909
		c0-2.799,0.765-5.583,2.295-8.35c1.529-2.767,3.89-5.07,7.08-6.909c3.189-1.839,7.112-2.759,11.768-2.759
		c2.115,0,4.361,0.106,6.738,0.317c2.376,0.212,4.02,0.317,4.932,0.317c0.781-0.032,1.514-0.057,2.197-0.073
		c0.684-0.016,1.229-0.049,1.636-0.098c0.406-0.049,0.838-0.105,1.294-0.171l0.293,16.699h-0.635l-3.076-11.279
		c-4.525-1.985-8.464-2.979-11.816-2.979c-2.8,0-5.314,0.529-7.544,1.587c-2.23,1.058-3.964,2.507-5.2,4.346
		c-1.237,1.839-1.855,3.915-1.855,6.226c0,2.409,0.83,4.614,2.49,6.616s3.931,3.963,6.812,5.884
		c2.881,1.921,5.973,3.955,9.277,6.104c3.304,2.148,5.948,4.216,7.935,6.201c3.873,3.874,5.811,8.35,5.811,13.428
		c0,2.865-0.749,5.819-2.246,8.862c-1.498,3.044-4.021,5.624-7.568,7.739c-3.549,2.116-8.139,3.174-13.77,3.174
		c-1.986,0-4.403-0.114-7.251-0.342c-2.849-0.228-4.94-0.342-6.274-0.342c-0.619,0-1.099,0.017-1.44,0.049
		c-0.342,0.033-0.871,0.082-1.587,0.146c-0.717,0.065-1.14,0.098-1.27,0.098l-0.781-17.188H278.541z M302.417,54.702h-1.563
		c-3.581,0-6.885,0.716-9.912,2.148c-3.027,1.433-5.42,3.467-7.178,6.104s-2.637,5.615-2.637,8.936c0,4.134,1.807,8.008,5.42,11.621
		c1.595,1.53,3.084,2.816,4.468,3.857c1.383,1.042,3.475,2.515,6.274,4.419c2.799,1.904,5.037,3.467,6.714,4.688
		c1.676,1.221,3.052,2.385,4.126,3.491c2.93,2.93,4.395,6.201,4.395,9.814c0,2.474-0.676,4.858-2.026,7.153
		c-1.352,2.295-3.305,4.167-5.859,5.615c-2.556,1.449-5.559,2.189-9.009,2.222v0.537c3.971,0.13,7.511-0.569,10.62-2.1
		c3.108-1.53,5.484-3.548,7.129-6.055c1.644-2.506,2.466-5.094,2.466-7.764c0-2.311-0.375-4.411-1.123-6.299
		c-0.749-1.888-2.116-3.825-4.102-5.811c-1.14-1.139-3.19-2.726-6.152-4.761c-2.963-2.034-5.957-4.085-8.984-6.152
		c-3.027-2.067-5.241-3.768-6.641-5.103c-3.418-3.385-5.127-7.112-5.127-11.182c0-3.581,1.554-6.917,4.663-10.01
		c3.108-3.092,7.788-4.72,14.038-4.883V54.702z"/>
	<path fill="#FEFFFD" d="M334.351,54.604h42.383c2.571,0,4.932-0.073,7.08-0.22s4.915-0.382,8.301-0.708l1.123,15.82h-0.586
		l-3.613-11.523c-2.963-0.521-6.055-0.781-9.277-0.781c-2.768,0-5.29,0.146-7.568,0.439c-2.279,0.293-4.736,0.781-7.373,1.465
		c-0.261,3.027-0.456,5.949-0.586,8.765c-0.131,2.816-0.229,5.42-0.293,7.813c-0.065,2.393-0.098,4.028-0.098,4.907v16.211
		c0,4.265,0.146,9.042,0.439,14.331c0.293,5.29,0.65,9.514,1.074,12.671l12.061,1.807v0.488h-36.865V125.6l11.865-1.807
		c1.009-7.194,1.514-15.901,1.514-26.123V79.995c0-3.646-0.082-7.243-0.244-10.791c-0.163-3.548-0.439-6.917-0.83-10.107
		c-1.889-0.521-4.086-0.936-6.592-1.245c-2.507-0.309-4.883-0.496-7.129-0.562c-3.549,0-7.048,0.293-10.498,0.879l-3.516,11.621
		h-0.684l1.074-16.016c0.977,0.065,2.393,0.22,4.248,0.464S333.146,54.604,334.351,54.604z M355.445,56.411v67.773h3.271V56.411
		H355.445z"/>
	<path fill="#FEFFFD" d="M432.984,126.088H396.07V125.6l11.914-1.807c0.553-4.069,0.968-8.976,1.245-14.722
		c0.276-5.745,0.415-11.369,0.415-16.87v-8.203c0-11.165-0.488-20.231-1.465-27.197l-12.109-1.709v-0.488h36.914v0.488
		l-12.207,1.709c-0.358,3.158-0.619,6.014-0.781,8.569c-0.163,2.556-0.31,5.648-0.439,9.277c-0.131,3.63-0.195,7.04-0.195,10.229
		v10.791c0,1.986,0.073,5.233,0.22,9.741c0.146,4.509,0.342,8.325,0.586,11.45s0.479,5.469,0.708,7.031l12.109,1.709V126.088z
		 M410.962,56.508v67.676h3.418V56.508H410.962z"/>
	<path fill="#FEFFFD" d="M475.513,53.872l21.142,50.439c2.734,6.576,5.924,13.103,9.57,19.58l8.105,1.709v0.488h-34.472V125.6
		l13.281-1.709c-0.488-3.223-1.392-6.73-2.71-10.522c-1.318-3.792-2.775-7.088-4.37-9.888h-30.615
		c-1.303,3.288-2.353,5.99-3.149,8.105c-0.798,2.116-1.563,4.313-2.295,6.592c-0.732,2.279-1.213,4.183-1.44,5.713l12.793,1.709
		v0.488h-27.295V125.6l8.984-1.709c2.181-3.776,4.183-7.942,6.006-12.5l22.607-57.52H475.513z M470.337,67.592
		c-0.879,1.726-2.043,4.248-3.491,7.568c-1.449,3.32-2.759,6.429-3.931,9.326c-1.172,2.897-2.393,5.981-3.662,9.253
		s-2.116,5.428-2.539,6.47c1.92,0.261,4.158,0.439,6.714,0.537c2.555,0.098,4.988,0.146,7.3,0.146
		c5.696,0,10.367-0.228,14.014-0.684c-1.237-3.678-3.337-8.911-6.299-15.698C475.48,77.724,472.779,72.084,470.337,67.592z
		 M471.119,63.491l25.341,60.693h3.271L472.73,59.389L471.119,63.491z"/>
	<path fill="#FEFFFD" d="M515.942,55.092v-0.488h36.914v0.488l-12.109,1.709c-0.424,3.158-0.781,7.414-1.074,12.769
		c-0.293,5.355-0.439,10.034-0.439,14.038v20.996c0,5.046,0.26,10.303,0.781,15.771c5.566,1.758,11.313,2.637,17.236,2.637
		c2.865,0,5.502-0.163,7.91-0.488c2.408-0.325,4.102-0.635,5.078-0.928l5.078-13.33h0.732l-2.295,17.822h-57.91V125.6l11.67-1.709
		c0.391-1.563,0.725-4.346,1.002-8.35c0.275-4.004,0.496-8.138,0.658-12.402c0.162-4.264,0.244-7.275,0.244-9.033V81.801
		c0-2.702-0.064-5.802-0.195-9.302c-0.131-3.499-0.285-6.567-0.463-9.204c-0.18-2.637-0.416-4.801-0.709-6.494L515.942,55.092z
		 M530.737,56.411v67.773h3.418V56.411H530.737z"/>
	<path fill="#FEFFFD" d="M649.585,55.092v-0.488h52.002l1.221,15.186h-0.781l-3.516-11.914c-2.768-0.195-5.875-0.293-9.326-0.293
		c-6.283,0-11.344,0.439-15.186,1.318c-0.65,5.273-0.977,11.296-0.977,18.066c0,4.232,0.131,7.666,0.391,10.303
		c5.143,0.293,8.414,0.439,9.814,0.439c3.678,0,7.471-0.211,11.377-0.635l2.197-8.301h0.83v20.801h-0.83l-2.295-8.789
		c-2.832-0.325-5.957-0.488-9.375-0.488c-4.297,0-8.203,0.195-11.719,0.586c-0.424,3.776-0.553,7.471-0.391,11.084
		c0.064,4.623,0.146,8.439,0.244,11.45c0.098,3.011,0.277,5.607,0.537,7.788c3.971,1.205,9.18,1.807,15.625,1.807
		c3.711,0,6.836-0.146,9.375-0.439l3.906-11.768h0.684l-1.074,15.283h-52.588V125.6l11.67-1.709c0.26-1.334,0.496-3.369,0.709-6.104
		c0.211-2.734,0.398-5.802,0.561-9.204c0.162-3.401,0.277-6.25,0.342-8.545s0.098-4.305,0.098-6.03V81.704
		c0-1.563-0.049-3.784-0.146-6.665s-0.244-5.867-0.439-8.96c-0.195-3.092-0.473-6.185-0.83-9.277L649.585,55.092z M664.429,56.508
		v67.676h3.369V56.508H664.429z"/>
	<path fill="#FEFFFD" d="M707.739,55.092v-0.488h36.914v0.488l-12.109,1.709c-0.424,3.158-0.781,7.414-1.074,12.769
		c-0.293,5.355-0.439,10.034-0.439,14.038v20.996c0,5.046,0.26,10.303,0.781,15.771c5.566,1.758,11.313,2.637,17.236,2.637
		c2.865,0,5.502-0.163,7.91-0.488c2.408-0.325,4.102-0.635,5.078-0.928l5.078-13.33h0.732l-2.295,17.822h-57.91V125.6l11.67-1.709
		c0.391-1.563,0.725-4.346,1.002-8.35c0.275-4.004,0.496-8.138,0.658-12.402c0.162-4.264,0.244-7.275,0.244-9.033V81.801
		c0-2.702-0.064-5.802-0.195-9.302c-0.131-3.499-0.285-6.567-0.463-9.204c-0.18-2.637-0.416-4.801-0.709-6.494L707.739,55.092z
		 M722.534,56.411v67.773h3.418V56.411H722.534z"/>
	<path fill="#FEFFFD" d="M807.056,126.088h-36.914V125.6l11.914-1.807c0.553-4.069,0.969-8.976,1.246-14.722
		c0.275-5.745,0.414-11.369,0.414-16.87v-8.203c0-11.165-0.488-20.231-1.465-27.197l-12.109-1.709v-0.488h36.914v0.488
		l-12.207,1.709c-0.357,3.158-0.619,6.014-0.781,8.569c-0.162,2.556-0.309,5.648-0.439,9.277c-0.131,3.63-0.195,7.04-0.195,10.229
		v10.791c0,1.986,0.074,5.233,0.221,9.741c0.146,4.509,0.342,8.325,0.586,11.45s0.479,5.469,0.707,7.031l12.109,1.709V126.088z
		 M785.034,56.508v67.676h3.418V56.508H785.034z"/>
	<path fill="#FEFFFD" d="M808.032,54.604h40.869v0.488l-15.576,1.611c1.758,2.734,3.395,5.176,4.908,7.324s3.174,4.354,4.98,6.616
		c1.807,2.263,3.783,4.647,5.932,7.153c2.148,2.507,4.361,5.078,6.641,7.715c2.539-2.604,5.477-5.802,8.814-9.595
		c3.336-3.792,6.307-7.349,8.91-10.669s4.639-6.168,6.104-8.545l-14.893-1.611v-0.488h32.666v0.488l-11.475,1.514
		c-2.051,1.888-4.387,4.289-7.006,7.202c-2.621,2.914-5.396,6.136-8.326,9.668c-2.93,3.532-5.469,6.689-7.617,9.473
		s-3.598,4.793-4.346,6.03c1.953,2.604,4.508,5.9,7.666,9.888c3.158,3.988,6.006,7.503,8.545,10.547
		c2.539,3.044,4.965,5.843,7.275,8.398c2.311,2.556,4.346,4.614,6.104,6.177l9.082,1.611v0.488h-39.697V125.6l15.527-1.709
		c-2.67-4.524-6.176-9.505-10.521-14.941c-4.346-5.436-8.57-10.384-12.672-14.844c-3.32,3.418-6.559,6.966-9.717,10.645
		c-3.158,3.679-6.039,7.202-8.643,10.571s-4.688,6.226-6.25,8.569l14.893,1.709v0.488h-32.422V125.6l11.23-1.709
		c4.654-4.557,9.693-10.099,15.113-16.626c5.42-6.526,9.773-12.085,13.061-16.675c-3.158-4.199-6.389-8.374-9.691-12.524
		c-3.305-4.15-6.666-8.228-10.084-12.231s-6.25-7.047-8.496-9.131l-10.889-1.611V54.604z M821.509,56.264l55.322,67.92h3.955
		l-55.176-67.92H821.509z"/>
	<path fill="#FEFFFD" d="M936.108,126.088h-36.914V125.6l11.914-1.807c0.553-4.069,0.969-8.976,1.246-14.722
		c0.275-5.745,0.414-11.369,0.414-16.87v-8.203c0-11.165-0.488-20.231-1.465-27.197l-12.109-1.709v-0.488h36.914v0.488
		l-12.207,1.709c-0.357,3.158-0.619,6.014-0.781,8.569c-0.162,2.556-0.309,5.648-0.439,9.277c-0.131,3.63-0.195,7.04-0.195,10.229
		v10.791c0,1.986,0.074,5.233,0.221,9.741c0.146,4.509,0.342,8.325,0.586,11.45s0.479,5.469,0.707,7.031l12.109,1.709V126.088z
		 M914.087,56.508v67.676h3.418V56.508H914.087z"/>
	<path fill="#FEFFFD" d="M951.05,96.987V81.899c0-3.874-0.131-8.309-0.391-13.306c-0.26-4.997-0.586-8.927-0.977-11.792
		l-11.719-1.709v-0.488h32.08c6.088,0,10.945,1.213,14.576,3.638c3.629,2.425,6.143,5.192,7.543,8.301
		c1.4,3.109,2.1,5.786,2.1,8.032c0,3.093-0.699,5.852-2.1,8.276c-1.4,2.425-3.23,4.354-5.492,5.786
		c-2.264,1.433-4.566,2.279-6.91,2.539v0.195c2.213,0.879,4.053,2.051,5.518,3.516c1.139,1.14,2.441,2.743,3.906,4.81
		c1.465,2.067,3.402,4.891,5.811,8.472c2.408,3.581,4.346,6.38,5.811,8.398c1.465,2.019,2.816,3.662,4.053,4.932
		c2.734,2.734,5.436,4.102,8.105,4.102v0.488h-8.496c-4.752,0-8.529-1.432-11.328-4.297c-1.107-1.106-2.205-2.417-3.295-3.931
		c-1.092-1.514-2.816-3.996-5.176-7.446c-2.361-3.45-4.346-6.299-5.957-8.545s-2.891-3.841-3.834-4.785
		c-1.4-1.399-2.678-2.335-3.832-2.808c-1.156-0.472-2.857-0.708-5.104-0.708c-2.051,0-3.646,0.114-4.785,0.342
		c-0.195,1.758-0.293,3.711-0.293,5.859v9.033c0,3.809,0.406,8.838,1.221,15.088l12.158,1.709v0.488h-36.279V125.6l11.475-1.709
		c0.488-3.288,0.879-7.91,1.172-13.867S951.05,99.721,951.05,96.987z M952.271,56.508v67.676h3.516V56.508H952.271z M960.767,74.672
		v8.008c0,2.832,0.098,5.469,0.293,7.91c1.27,0.195,3.109,0.293,5.518,0.293c4.166,0,7.527-0.716,10.084-2.148
		c2.555-1.432,4.377-3.296,5.469-5.591c1.09-2.295,1.635-4.81,1.635-7.544c0-2.702-0.529-5.192-1.586-7.471
		c-1.059-2.278-2.426-4.207-4.102-5.786c-1.678-1.579-3.549-2.799-5.615-3.662c-2.068-0.862-4.094-1.294-6.08-1.294
		c-1.889,0-3.369,0.13-4.443,0.391c-0.293,1.888-0.561,4.59-0.805,8.105S960.767,72.329,960.767,74.672z M965.649,55.678v0.488
		c4.459,0.098,8.195,1.18,11.207,3.247c3.01,2.067,5.199,4.598,6.566,7.593c1.367,2.995,2.051,5.957,2.051,8.887
		c0,6.511-2.832,11.214-8.496,14.111l0.293,0.195c3.32-0.846,6.063-2.653,8.229-5.42c2.164-2.767,3.246-6.071,3.246-9.912
		c0-2.995-0.586-5.705-1.758-8.13c-1.172-2.425-2.758-4.451-4.76-6.079c-2.002-1.627-4.24-2.864-6.715-3.711
		c-2.475-0.846-4.965-1.27-7.471-1.27H965.649z M978.345,98.891l10.596,15.381c2.539,3.613,4.801,6.193,6.787,7.739
		c1.986,1.546,4.33,2.336,7.031,2.368v-0.488c-2.572-0.749-5.875-4.053-9.912-9.912l-8.496-12.207
		c-1.822-2.669-3.531-4.688-5.127-6.055s-3.549-2.278-5.859-2.734l-0.195,0.391C974.991,94.545,976.718,96.385,978.345,98.891z"/>
</g>
<g>
</g>
<g display="none">
	<g display="inline">
		<path d="M57.971,36.283c1.935,0,1.935-3,0-3S56.036,36.283,57.971,36.283L57.971,36.283z"/>
	</g>
</g>
<g>
	<g>
		<path d="M-368.116-12.993c1.935,0,1.935-3,0-3S-370.051-12.993-368.116-12.993L-368.116-12.993z"/>
	</g>
</g>
</svg>
